<svg xmlns="http://www.w3.org/2000/svg" viewBox="0 0 1656 260" width="1656" height="260" font-family="Inter,Segoe UI,sans-serif" font-size="12">
<rect width="1656" height="260" fill="#0f172a" rx="8"/>
<line x1="48" x2="1608" y1="212.0" y2="212.0" stroke="#334155"/>
<text x="40" y="216.0" fill="#94a3b8" text-anchor="end">0%</text>
<line x1="48" x2="1608" y1="171.0" y2="171.0" stroke="#334155"/>
<text x="40" y="175.0" fill="#94a3b8" text-anchor="end">25%</text>
<line x1="48" x2="1608" y1="130.0" y2="130.0" stroke="#334155"/>
<text x="40" y="134.0" fill="#94a3b8" text-anchor="end">50%</text>
<line x1="48" x2="1608" y1="89.0" y2="89.0" stroke="#334155"/>
<text x="40" y="93.0" fill="#94a3b8" text-anchor="end">75%</text>
<line x1="48" x2="1608" y1="48.0" y2="48.0" stroke="#334155"/>
<text x="40" y="52.0" fill="#94a3b8" text-anchor="end">100%</text>
<rect x="62.0" y="120.5" width="46" height="91.5" fill="#64748b" rx="3"/>
<text x="85.0" y="115.5" fill="#e2e8f0" text-anchor="middle">56%</text>
<rect x="112.0" y="70.1" width="46" height="141.9" fill="#22c55e" rx="3"/>
<text x="135.0" y="65.1" fill="#e2e8f0" text-anchor="middle">87%</text>
<text x="108.0" y="230" fill="#e2e8f0" text-anchor="middle">falcon3b arabic math</text>
<rect x="182.0" y="102.7" width="46" height="109.3" fill="#64748b" rx="3"/>
<text x="205.0" y="97.7" fill="#e2e8f0" text-anchor="middle">67%</text>
<rect x="232.0" y="102.7" width="46" height="109.3" fill="#22c55e" rx="3"/>
<text x="255.0" y="97.7" fill="#e2e8f0" text-anchor="middle">67%</text>
<text x="228.0" y="230" fill="#e2e8f0" text-anchor="middle">falcon3b arabic logic</text>
<rect x="302.0" y="128.4" width="46" height="83.6" fill="#64748b" rx="3"/>
<text x="325.0" y="123.4" fill="#e2e8f0" text-anchor="middle">51%</text>
<rect x="352.0" y="80.2" width="46" height="131.8" fill="#22c55e" rx="3"/>
<text x="375.0" y="75.2" fill="#e2e8f0" text-anchor="middle">80%</text>
<text x="348.0" y="230" fill="#e2e8f0" text-anchor="middle">falcon3b formalizer math</text>
<rect x="422.0" y="86.8" width="46" height="125.2" fill="#64748b" rx="3"/>
<text x="445.0" y="81.8" fill="#e2e8f0" text-anchor="middle">76%</text>
<rect x="472.0" y="86.8" width="46" height="125.2" fill="#22c55e" rx="3"/>
<text x="495.0" y="81.8" fill="#e2e8f0" text-anchor="middle">76%</text>
<text x="468.0" y="230" fill="#e2e8f0" text-anchor="middle">falcon3b formalizer logic</text>
<rect x="542.0" y="164.5" width="46" height="47.5" fill="#64748b" rx="3"/>
<text x="565.0" y="159.5" fill="#e2e8f0" text-anchor="middle">29%</text>
<rect x="592.0" y="160.2" width="46" height="51.8" fill="#22c55e" rx="3"/>
<text x="615.0" y="155.2" fill="#e2e8f0" text-anchor="middle">32%</text>
<text x="588.0" y="230" fill="#e2e8f0" text-anchor="middle">falcon3b formalizer hard math</text>
<rect x="662.0" y="130.0" width="46" height="82.0" fill="#64748b" rx="3"/>
<text x="685.0" y="125.0" fill="#e2e8f0" text-anchor="middle">50%</text>
<rect x="712.0" y="130.0" width="46" height="82.0" fill="#22c55e" rx="3"/>
<text x="735.0" y="125.0" fill="#e2e8f0" text-anchor="middle">50%</text>
<text x="708.0" y="230" fill="#e2e8f0" text-anchor="middle">falcon3b formalizer hard logic</text>
<rect x="782.0" y="128.4" width="46" height="83.6" fill="#64748b" rx="3"/>
<text x="805.0" y="123.4" fill="#e2e8f0" text-anchor="middle">51%</text>
<rect x="832.0" y="67.3" width="46" height="144.7" fill="#22c55e" rx="3"/>
<text x="855.0" y="62.3" fill="#e2e8f0" text-anchor="middle">88%</text>
<text x="828.0" y="230" fill="#e2e8f0" text-anchor="middle">falcon3b v2 math</text>
<rect x="902.0" y="48.0" width="46" height="164.0" fill="#64748b" rx="3"/>
<text x="925.0" y="43.0" fill="#e2e8f0" text-anchor="middle">100%</text>
<rect x="952.0" y="48.0" width="46" height="164.0" fill="#22c55e" rx="3"/>
<text x="975.0" y="43.0" fill="#e2e8f0" text-anchor="middle">100%</text>
<text x="948.0" y="230" fill="#e2e8f0" text-anchor="middle">falcon7b arabic math</text>
<rect x="1022.0" y="61.7" width="46" height="150.3" fill="#64748b" rx="3"/>
<text x="1045.0" y="56.7" fill="#e2e8f0" text-anchor="middle">92%</text>
<rect x="1072.0" y="54.8" width="46" height="157.2" fill="#22c55e" rx="3"/>
<text x="1095.0" y="49.8" fill="#e2e8f0" text-anchor="middle">96%</text>
<text x="1068.0" y="230" fill="#e2e8f0" text-anchor="middle">falcon7b arabic logic</text>
<rect x="1142.0" y="51.2" width="46" height="160.8" fill="#64748b" rx="3"/>
<text x="1165.0" y="46.2" fill="#e2e8f0" text-anchor="middle">98%</text>
<rect x="1192.0" y="48.0" width="46" height="164.0" fill="#22c55e" rx="3"/>
<text x="1215.0" y="43.0" fill="#e2e8f0" text-anchor="middle">100%</text>
<text x="1188.0" y="230" fill="#e2e8f0" text-anchor="middle">F math</text>
<rect x="1262.0" y="56.6" width="46" height="155.4" fill="#64748b" rx="3"/>
<text x="1285.0" y="51.6" fill="#e2e8f0" text-anchor="middle">95%</text>
<rect x="1312.0" y="52.3" width="46" height="159.7" fill="#22c55e" rx="3"/>
<text x="1335.0" y="47.3" fill="#e2e8f0" text-anchor="middle">97%</text>
<text x="1308.0" y="230" fill="#e2e8f0" text-anchor="middle">F logic</text>
<rect x="1382.0" y="52.3" width="46" height="159.7" fill="#64748b" rx="3"/>
<text x="1405.0" y="47.3" fill="#e2e8f0" text-anchor="middle">97%</text>
<rect x="1432.0" y="48.0" width="46" height="164.0" fill="#22c55e" rx="3"/>
<text x="1455.0" y="43.0" fill="#e2e8f0" text-anchor="middle">100%</text>
<text x="1428.0" y="230" fill="#e2e8f0" text-anchor="middle">F hard math</text>
<rect x="1502.0" y="52.1" width="46" height="159.9" fill="#64748b" rx="3"/>
<text x="1525.0" y="47.1" fill="#e2e8f0" text-anchor="middle">98%</text>
<rect x="1552.0" y="52.1" width="46" height="159.9" fill="#22c55e" rx="3"/>
<text x="1575.0" y="47.1" fill="#e2e8f0" text-anchor="middle">98%</text>
<text x="1548.0" y="230" fill="#e2e8f0" text-anchor="middle">F hard logic</text>
<rect x="1456" y="14" width="12" height="12" fill="#64748b"/><text x="1474" y="24" fill="#e2e8f0">Falcon baseline</text>
<rect x="1456" y="34" width="12" height="12" fill="#22c55e"/><text x="1474" y="44" fill="#e2e8f0">Falcon + Lean verifier</text>
</svg>